<svg width="700" height="700" viewBox="0 0 700 700" fill="none" xmlns="http://www.w3.org/2000/svg">
<g clip-path="url(#clip0)">
<path d="M223.297 544.472C182.936 544.472 150.219 577.191 150.219 617.551C150.219 657.912 182.938 690.63 223.297 690.63C263.659 690.63 296.376 657.911 296.376 617.551C296.378 577.191 263.659 544.472 223.297 544.472ZM223.297 658.151C200.875 658.151 182.699 639.975 182.699 617.552C182.699 595.13 200.875 576.954 223.297 576.954C245.72 576.954 263.896 595.13 263.896 617.552C263.898 639.975 245.72 658.151 223.297 658.151Z" fill="#9FC200"/>
<path d="M531.855 544.472C491.494 544.472 458.777 577.191 458.777 617.551C458.777 657.912 491.496 690.63 531.855 690.63C572.215 690.63 604.934 657.911 604.934 617.551C604.934 577.191 572.216 544.472 531.855 544.472ZM531.855 658.151C509.433 658.151 491.256 639.975 491.256 617.552C491.256 595.13 509.433 576.954 531.855 576.954C554.278 576.954 572.454 595.13 572.454 617.552C572.456 639.975 554.278 658.151 531.855 658.151Z" fill="#9FC200"/>
<path d="M696.689 118.177C693.308 114.483 688.681 112.17 683.698 111.68L155.091 104.373L140.475 59.7125C130.179 29.8577 102.222 9.70281 70.6433 9.36865H16.2399C7.27057 9.36865 0 16.6392 0 25.6085C0 34.5779 7.27057 41.8484 16.2399 41.8484H70.6433C88.3006 42.2385 103.849 53.5765 109.62 70.2686L212.743 381.262L204.624 399.937C195.567 423.291 198.287 449.575 211.931 470.581C225.445 491.211 248.18 503.943 272.831 504.684H588.697C597.666 504.684 604.937 497.414 604.937 488.445C604.937 479.475 597.666 472.205 588.697 472.205H272.83C258.909 471.857 246.094 464.533 238.726 452.717C231.44 441.044 229.943 426.665 234.666 413.74L241.163 399.124L583.012 363.396C620.561 359.261 651.45 331.95 660.152 295.189L699.128 131.978C700.884 127.278 699.952 121.993 696.689 118.177ZM628.483 287.882C623.211 311.547 603.12 329.002 578.952 330.918L241.163 365.833L165.647 136.852L663.398 144.16L628.483 287.882Z" fill="#9FC200"/>
</g>
<defs>
<clipPath id="clip0">
<rect width="700" height="700" fill="white"/>
</clipPath>
</defs>
</svg>
